<svg xmlns="http://www.w3.org/2000/svg" viewBox="0 8.84000015258789 79.22000122070312 37.029998779296875" data-asc="0.9052734375"><g fill="#000000"><g fill="#000000" transform="translate(0, 0)"><path d="M0 45.26L0 9.47L4.74 9.47L4.74 45.26L0 45.26ZM13.09 45.26L13.09 9.47L26.59 9.47Q30.15 9.47 32.03 9.81Q34.67 10.25 36.45 11.49Q38.23 12.72 39.32 14.94Q40.41 17.16 40.41 19.82Q40.41 24.39 37.50 27.55Q34.59 30.71 27.00 30.71L17.82 30.71L17.82 45.26L13.09 45.26M17.82 26.49L27.08 26.49Q31.67 26.49 33.59 24.78Q35.52 23.07 35.52 19.97Q35.52 17.72 34.39 16.13Q33.25 14.53 31.40 14.01Q30.20 13.70 26.98 13.70L17.82 13.70L17.82 26.49ZM45.00 27.83Q45.00 18.92 49.78 13.88Q54.57 8.84 62.13 8.84Q67.09 8.84 71.07 11.21Q75.05 13.57 77.14 17.81Q79.22 22.05 79.22 27.42Q79.22 32.86 77.03 37.16Q74.83 41.46 70.80 43.66Q66.77 45.87 62.11 45.87Q57.06 45.87 53.08 43.43Q49.10 40.99 47.05 36.77Q45.00 32.54 45.00 27.83M49.88 27.91Q49.88 34.38 53.36 38.10Q56.84 41.82 62.08 41.82Q67.43 41.82 70.89 38.06Q74.34 34.30 74.34 27.39Q74.34 23.02 72.86 19.76Q71.39 16.50 68.54 14.71Q65.70 12.92 62.16 12.92Q57.13 12.92 53.50 16.37Q49.88 19.82 49.88 27.91Z"/></g></g></svg>